<svg width="41" height="15" viewBox="0 0 41 15" fill="none" xmlns="http://www.w3.org/2000/svg">
  <path
    d="M11.3906 3.46191C10.9336 3.46191 10.2217 3.42969 9.25488 3.36523C8.32324 3.30078 7.61133 3.27148 7.11914 3.27734C7.14258 3.94531 7.22168 5.13477 7.35645 6.8457C7.47949 8.35742 7.54102 9.55273 7.54102 10.4316C7.54102 10.6309 7.56152 10.9268 7.60254 11.3193C7.64355 11.7119 7.66406 12.0078 7.66406 12.207C7.66406 12.6465 7.57031 13.042 7.38281 13.3936C7.14258 13.8447 6.7998 14.0703 6.35449 14.0703C6.03223 14.0703 5.74805 13.9678 5.50195 13.7627C5.22656 13.5342 5.08887 13.2471 5.08887 12.9014C5.08887 12.8193 5.10352 12.6963 5.13281 12.5322C5.16211 12.3623 5.17676 12.2334 5.17676 12.1455C5.17676 11.876 5.15625 11.4688 5.11523 10.9238C5.08008 10.3789 5.0625 9.96875 5.0625 9.69336C5.0625 8.9082 5.00098 7.84473 4.87793 6.50293C4.7373 4.96191 4.65527 3.89844 4.63184 3.3125H4.1748C2.86816 3.3125 1.83105 3.21875 1.06348 3.03125C0.413086 2.87305 0.0878906 2.48926 0.0878906 1.87988C0.0878906 1.58105 0.193359 1.31152 0.404297 1.07129C0.650391 0.78418 0.972656 0.655273 1.37109 0.68457C1.57617 0.696289 2.04199 0.746094 2.76855 0.833984C3.34863 0.898437 3.81738 0.930664 4.1748 0.930664C4.53223 0.930664 5.06543 0.924805 5.77441 0.913086C6.48926 0.901367 7.02539 0.895508 7.38281 0.895508C7.82812 0.895508 8.49609 0.927734 9.38672 0.992188C10.2773 1.05078 10.9453 1.08008 11.3906 1.08008C11.7422 1.08008 12.0352 1.19434 12.2695 1.42285C12.5098 1.65137 12.6299 1.93262 12.6299 2.2666C12.6299 2.60059 12.5098 2.88477 12.2695 3.11914C12.0352 3.34766 11.7422 3.46191 11.3906 3.46191ZM17.1826 7.05664C16.9189 8.00586 16.5498 9.43848 16.0752 11.3545C15.9639 12.0166 15.8555 12.6758 15.75 13.332C15.5098 14.1641 15.0674 14.5801 14.4229 14.5801C14.0186 14.5801 13.6992 14.4424 13.4648 14.167C13.2656 13.9326 13.166 13.6543 13.166 13.332C13.166 12.3828 13.3682 11.2256 13.7725 9.86035C14.376 7.81543 14.7012 6.68164 14.748 6.45898C14.918 5.55664 15.0908 4.6543 15.2666 3.75195C15.5303 2.50977 15.8145 1.68359 16.1191 1.27344C16.4297 0.857422 16.8193 0.649414 17.2881 0.649414C17.8213 0.649414 18.2139 0.918945 18.4658 1.45801C18.7002 1.96777 18.9521 3.01074 19.2217 4.58691C19.4795 6.11621 19.8633 7.7627 20.373 9.52637C21.041 7.78613 21.6621 5.87598 22.2363 3.7959L22.7285 1.77441C23.0449 0.936523 23.5342 0.517578 24.1963 0.517578C24.835 0.517578 25.3096 1.00391 25.6201 1.97656C25.749 2.36914 25.8867 3.10156 26.0332 4.17383C26.373 6.66992 26.8008 8.80859 27.3164 10.5898C27.8379 12.4004 28.0986 13.3848 28.0986 13.543C28.0986 13.8887 27.9609 14.1787 27.6855 14.4131C27.4277 14.624 27.1377 14.7295 26.8154 14.7295C26.1768 14.7295 25.7021 14.2725 25.3916 13.3584L24.8994 11.2314C24.6182 10.1768 24.3135 8.66211 23.9854 6.6875C23.7217 7.47266 23.2852 8.70605 22.6758 10.3877L22.1484 12.0049C21.9316 12.6436 21.7061 13.168 21.4717 13.5781C21.1611 14.123 20.7275 14.3955 20.1709 14.3955C19.6201 14.3955 19.1982 14.0703 18.9053 13.4199L18.4131 11.7852C17.9561 10.2852 17.5459 8.70898 17.1826 7.05664ZM39.4102 14.2637C38.9473 14.2461 38.4814 13.7012 38.0127 12.6289C37.7021 11.9375 37.4355 11.1406 37.2129 10.2383C36.7793 10.3027 36.0703 10.3672 35.0859 10.4316C34.1602 10.4961 33.4512 10.5723 32.959 10.6602C32.6895 11.3047 32.2207 12.2744 31.5527 13.5693C31.2949 13.9912 30.9375 14.2021 30.4805 14.2021C30.1582 14.2021 29.8682 14.0938 29.6104 13.877C29.3525 13.6543 29.2236 13.373 29.2236 13.0332C29.2236 12.7344 29.6514 11.7207 30.5068 9.99219C30.4248 9.81055 30.3896 9.64062 30.4014 9.48242C30.4248 9.20117 30.709 8.98145 31.2539 8.82324C32.0859 7.38184 33.0117 5.8877 34.0312 4.34082C35.4961 2.12012 36.3984 1.00977 36.7383 1.00977C37.3828 1.00977 37.8135 1.39941 38.0303 2.17871C38.1475 2.80566 38.332 3.74609 38.584 5C38.9414 6.6875 39.3779 8.61816 39.8936 10.792C39.9346 10.9561 40.084 11.3428 40.3418 11.9521C40.5527 12.4561 40.6582 12.834 40.6582 13.0859C40.6582 13.4258 40.5293 13.71 40.2715 13.9385C40.0195 14.167 39.7324 14.2754 39.4102 14.2637ZM36.1318 5.24609C35.6748 6.03125 35.0449 7.10059 34.2422 8.4541C34.5059 8.39551 34.916 8.34863 35.4727 8.31348C36.1289 8.27246 36.542 8.24023 36.7119 8.2168C36.5713 7.45508 36.3779 6.46484 36.1318 5.24609Z"
    fill="white" />
</svg>